<svg xmlns="http://www.w3.org/2000/svg" version="1.1" xmlns:xlink="http://www.w3.org/1999/xlink" xmlns:svgjs="http://svgjs.dev/svgjs" width="100%" height="100%" viewBox="0 0 1000 600"><rect width="1000" height="600" x="0" y="0" fill="white"/><g><circle r="166.66666666666666" cx="573.3229777018229" cy="483.56293004467034" fill="white" transform="matrix(0.42419751989410603,0,0,0.42419751989410603,-27.352087271655904,94.87379970242723)"/><path d="M359.15379189983196 558.5629431559609L359.15379189983196 411.0524458247936L375.636051155458 411.0524458247936L375.636051155458 428.36454104988695L376.4658871249253 428.36454104988695Q386.76729915969156 408.5629379163918 409.2301004021681 408.5629379163918L409.2301004021681 408.5629379163918Q428.802783268224 408.5629379163918 439.81957113873796 423.2138350325038Q450.8363590092519 437.83611711518597 450.8363590092519 464.1905629041297L450.8363590092519 464.1905629041297Q450.8363590092519 490.5736237265034 439.81957113873796 505.1959058091855Q428.802783268224 519.8181878918676 409.2301004021681 519.8181878918676L409.2301004021681 519.8181878918676Q386.76729915969156 519.8181878918676 376.4658871249253 500.04519979180236L376.4658871249253 500.04519979180236L375.636051155458 500.04519979180236L375.636051155458 558.5629431559609L359.15379189983196 558.5629431559609ZM402.82033291386904 505.1959058091855L402.82033291386904 505.1959058091855Q417.2423097625418 505.1959058091855 425.19728905605587 496.43970557963416Q433.1236533161399 487.68350535008284 433.1236533161399 473.26152850141006L433.1236533161399 473.26152850141006L433.1236533161399 455.1482123402793Q433.1236533161399 440.7262354916065 425.19728905605587 431.97003526205515Q417.2423097625418 423.2138350325038 402.82033291386904 423.2138350325038L402.82033291386904 423.2138350325038Q397.26901642846724 423.2138350325038 392.3186156450934 424.64458670399915Q387.3682148617196 426.0753383754944 383.6768755492617 428.8796116516253Q379.9569212033739 431.6552698943262 377.8107936961309 435.66137457451305Q375.636051155458 439.69609428812987 375.636051155458 445.04710553952236L375.636051155458 445.04710553952236L375.636051155458 483.36263530216695Q375.636051155458 488.71364655355944 377.8107936961309 492.74836626717627Q379.9569212033739 496.75447094736313 383.6768755492617 499.5301291900641Q387.3682148617196 502.305787432765 392.3186156450934 503.7651541376902Q397.26901642846724 505.1959058091855 402.82033291386904 505.1959058091855ZM489.5811142733451 517.3572950168957L474.32930145520504 517.3572950168957L474.32930145520504 411.0524458247936L489.5811142733451 411.0524458247936L489.5811142733451 423.4141402665132L490.3823352093825 423.4141402665132Q492.87184311778435 417.23329304565334 497.39301839970955 412.9124229977375Q501.94280871506464 408.5629379163918 510.7848540449057 408.5629379163918L510.7848540449057 408.5629379163918Q520.0561248761953 408.5629379163918 524.6059151915505 413.1985733320366Q529.1270904734757 417.8342087476814 530.1572316769523 425.2741174394571L530.1572316769523 425.2741174394571L530.7867624124103 425.2741174394571Q533.6482657554009 418.0631290151207 539.0278920402233 413.31303346575623Q544.3789032916158 408.5629379163918 553.8504793569148 408.5629379163918L553.8504793569148 408.5629379163918Q566.8417045340923 408.5629379163918 571.2484196822978 417.63390351367207Q575.6837498639334 426.70486911095236 575.6837498639334 443.58773883459713L575.6837498639334 443.58773883459713L575.6837498639334 517.3572950168957L560.4319370457933 517.3572950168957L560.4319370457933 446.27755197700833Q560.4319370457933 432.6854110978028 557.6562788030923 427.42024494670005Q554.8806205603914 422.1836938290272 547.4693269020456 422.1836938290272L547.4693269020456 422.1836938290272Q540.8592541797373 422.1836938290272 536.7386893658309 426.39010374322345Q532.6181245519242 430.6251286908496 532.6181245519242 439.26686878668124L532.6181245519242 439.26686878668124L532.6181245519242 517.3572950168957L517.3949267672141 517.3572950168957L517.3949267672141 446.27755197700833Q517.3949267672141 432.6854110978028 514.5906534910832 427.42024494670005Q511.8149952483824 422.1836938290272 504.604006824046 422.1836938290272L504.604006824046 422.1836938290272Q498.0225491351675 422.1836938290272 493.78752418754135 426.39010374322345Q489.5811142733451 430.6251286908496 489.5811142733451 439.26686878668124L489.5811142733451 439.26686878668124L489.5811142733451 517.3572950168957ZM652.3434244226524 519.8181878918676L652.3434244226524 519.8181878918676Q640.7829509169703 519.8181878918676 631.8264454534096 515.8120832116808Q622.869939989849 511.80597853149385 616.6890927689891 504.59499010715746Q610.5082455481294 497.38400168282107 607.3033618039799 487.0825896480548Q604.1270930932603 476.7811776132885 604.1270930932603 464.1905629041297L604.1270930932603 464.1905629041297Q604.1270930932603 451.6285632284008 607.4178219376995 441.3271511936345Q610.7085507821388 431.02573915886825 616.8893980029985 423.7289056342421Q623.0702452238583 416.4034570761861 631.9409055871292 412.48319749628894Q640.7829509169703 408.5629379163918 652.1145041552132 408.5629379163918L652.1145041552132 408.5629379163918Q667.5666222073626 408.5629379163918 677.2671185401009 415.37331587270944Q686.9389998394092 422.1836938290272 691.4887901547645 433.0860215658215L691.4887901547645 433.0860215658215L678.2972597435776 440.09670475614854Q675.407141367157 431.85557512833554 668.7112235445588 427.3343998464103Q662.0153057219609 422.78460953105525 652.1145041552132 422.78460953105525L652.1145041552132 422.78460953105525Q644.9035157308768 422.78460953105525 639.2377391117553 425.1596573057375Q633.5719624926338 427.53470508041966 629.6803179461666 431.85557512833554Q625.7600583662695 436.1764451762514 623.7856210596059 442.1569871631018Q621.8397987863723 448.13752914995223 621.8397987863723 455.1482123402793L621.8397987863723 455.1482123402793L621.8397987863723 473.26152850141006Q621.8397987863723 480.2722116917371 623.7856210596059 486.2527536785875Q625.7600583662695 492.23329566543794 629.6803179461666 496.5541657133538Q633.5719624926338 500.87503576126966 639.3521992454749 503.2500835359519Q645.132435998316 505.6251313106341 652.5437296566619 505.6251313106341L652.5437296566619 505.6251313106341Q663.2457521594467 505.6251313106341 670.2564353497739 500.6747305272603Q677.2671185401009 495.7243297438865 681.3876833540075 487.0825896480548L681.3876833540075 487.0825896480548L693.119847060269 495.09479900842854Q688.3983665443345 505.8254365446434 678.3831048438674 512.8361197349705Q668.39645817683 519.8181878918676 652.3434244226524 519.8181878918676ZM772.2404144939601 519.2172721898396L772.2404144939601 519.2172721898396Q763.7989796321376 519.2172721898396 760.3937906539788 515.6976230779612Q756.9886016758201 512.2065889995126 756.9886016758201 506.8555777481201L756.9886016758201 506.8555777481201L756.9886016758201 503.1356234022323Q756.9886016758201 497.7846121508398 760.3937906539788 494.2935780723912Q763.7989796321376 490.7739289605127 772.2404144939601 490.7739289605127L772.2404144939601 490.7739289605127Q780.6818493557826 490.7739289605127 784.0870383339413 494.2935780723912Q787.4922273121001 497.7846121508398 787.4922273121001 503.1356234022323L787.4922273121001 503.1356234022323L787.4922273121001 506.8555777481201Q787.4922273121001 512.2065889995126 784.0870383339413 515.6976230779612Q780.6818493557826 519.2172721898396 772.2404144939601 519.2172721898396Z " fill="#aa96da" transform="matrix(0.42419751989410603,0,0,0.42419751989410603,-27.352087271655904,94.87379970242723)"/><path d="M824.729399071128 558.5629332534108L824.729399071128 547.7952804992676L864.2840418414498 547.7952804992676L864.2840418414498 456.0285092721211L823.3230117726276 456.0285092721211L823.3230117726276 445.282831319517L876.9415275279528 445.282831319517L876.9415275279528 539.8843519452034Q876.9415275279528 548.1249025223538 872.5905168232173 553.3329304871127Q868.2395061184819 558.5629332534108 858.9221902659173 558.5629332534108L858.9221902659173 558.5629332534108L824.729399071128 558.5629332534108ZM870.6127846847012 427.2415192559424L870.6127846847012 427.2415192559424Q865.0751346968561 427.2415192559424 862.8776545429494 424.9561398958794Q860.6581995875035 422.6487857342773 860.6581995875035 419.1767670911046L860.6581995875035 419.1767670911046L860.6581995875035 416.64966491411184Q860.6581995875035 413.1556714694001 862.8776545429494 410.870292109337Q865.0751346968561 408.5629379477349 870.6127846847012 408.5629379477349L870.6127846847012 408.5629379477349Q876.1504346725463 408.5629379477349 878.3698896279922 410.870292109337Q880.589344583438 413.1556714694001 880.589344583438 416.64966491411184L880.589344583438 416.64966491411184L880.589344583438 419.1767670911046Q880.589344583438 422.6487857342773 878.3698896279922 424.9561398958794Q876.1504346725463 427.2415192559424 870.6127846847012 427.2415192559424ZM931.7027329633094 526.9192190371534L919.0452472768064 526.9192190371534L919.0452472768064 445.282831319517L931.7027329633094 445.282831319517L931.7027329633094 458.5775862506529L932.3180274064033 458.5775862506529Q933.5925658956692 455.5670384398007 935.4823988280291 452.79821344587816Q937.394206561928 450.02938845195564 940.1630315558505 447.96375710728324Q942.931856549773 445.92010056414995 946.7334972160317 444.645562074884Q950.5131630807514 443.3710235856181 955.5893422362759 443.3710235856181L955.5893422362759 443.3710235856181Q968.4006515335524 443.3710235856181 976.1577564768432 451.52367495661224Q983.9148614201342 459.6763263276063 983.9148614201342 474.5532669695552L983.9148614201342 474.5532669695552L983.9148614201342 526.9192190371534L971.2573757336312 526.9192190371534L971.2573757336312 476.772721925001Q971.2573757336312 465.52162353699833 966.33502018888 460.0718727553095Q961.4346394456679 454.6221219736208 951.9415251807907 454.6221219736208L951.9415251807907 454.6221219736208Q948.139884514532 454.6221219736208 944.5140422605858 455.5670384398007Q940.8662252051006 456.5119549059806 938.0314758065608 458.4017878383404Q935.1747516064821 460.3135955722393 933.4387422848957 463.32414338309155Q931.7027329633094 466.31271639240475 931.7027329633094 470.26818066943696L931.7027329633094 470.26818066943696L931.7027329633094 526.9192190371534ZM1085.482394133705 526.9192190371534L1076.7803727242342 526.9192190371534Q1069.3528898040292 526.9192190371534 1066.1885183824036 523.1175783708948Q1063.0241469607777 519.315937704636 1062.2330541053714 513.6244641060175L1062.2330541053714 513.6244641060175L1061.441961249965 513.6244641060175Q1058.7390606606596 520.7442998046754 1052.8058642451113 524.7876632878638Q1046.872667829563 528.8090519695132 1036.9180827323653 528.8090519695132L1036.9180827323653 528.8090519695132Q1024.0847986335498 528.8090519695132 1016.5034921025715 522.1726619047148Q1008.9002107700542 515.5362718399164 1008.9002107700542 503.9775262303668L1008.9002107700542 503.9775262303668Q1008.9002107700542 492.5945790331297 1017.2066857518217 486.4196598006517Q1025.5131607335893 480.24474056817365 1044.0379184310232 480.24474056817365L1044.0379184310232 480.24474056817365L1061.441961249965 480.24474056817365L1061.441961249965 472.1799884033358Q1061.441961249965 463.148344970779 1056.3657820944404 458.6435106552702Q1051.3115777404546 454.1386763397613 1041.9722870863511 454.1386763397613L1041.9722870863511 454.1386763397613Q1033.7537113107396 454.1386763397613 1028.5237085444414 457.3909469675433Q1023.2937057781435 460.6212427937862 1020.1293343565177 466.1588927816313L1020.1293343565177 466.1588927816313L1011.6031113593594 459.8301499383798Q1013.1852970701723 456.6657785167541 1015.8662228579385 453.6552307059018Q1018.5471486457049 450.6666576965886 1022.502612922737 448.3593035349865Q1026.4580771997691 446.07392417492343 1031.5342563552938 444.7334612810403Q1036.5884607092794 443.3710235856181 1042.7633799417574 443.3710235856181L1042.7633799417574 443.3710235856181Q1057.1568749498467 443.3710235856181 1065.6171735423877 450.6666576965886Q1074.0994469364678 457.94031700602 1074.0994469364678 470.9054499140699L1074.0994469364678 470.9054499140699L1074.0994469364678 515.8439190614633L1085.482394133705 515.8439190614633L1085.482394133705 526.9192190371534ZM1039.115562886272 518.2171976276826L1039.115562886272 518.2171976276826Q1044.0379184310232 518.2171976276826 1048.0593071126727 517.0305583445729Q1052.1026705958611 515.8439190614633 1055.1132184067135 513.8661869229472Q1058.1017914160266 511.8884547844311 1059.7718763329958 509.1196297905086Q1061.441961249965 506.3508047965861 1061.441961249965 503.18643337496036L1061.441961249965 503.18643337496036L1061.441961249965 489.7378548330509L1044.0379184310232 489.7378548330509Q1032.6329964322472 489.7378548330509 1027.4249684674883 492.90222625467663Q1022.1949657011901 496.06659767630237 1022.1949657011901 502.08769329800697L1022.1949657011901 502.08769329800697L1022.1949657011901 505.4058883304062Q1022.1949657011901 511.73463117365765 1026.6998000166989 514.9649269999006Q1031.2046343322077 518.2171976276826 1039.115562886272 518.2171976276826ZM1108.4240869404916 558.5629332534108L1108.4240869404916 445.282831319517L1121.0815726269946 445.282831319517L1121.0815726269946 458.5775862506529L1121.7188418716275 458.5775862506529Q1129.629770425692 443.3710235856181 1146.87998963386 443.3710235856181L1146.87998963386 443.3710235856181Q1161.9107538865824 443.3710235856181 1170.3710524791234 454.6221219736208Q1178.8313510716644 465.85124556008435 1178.8313510716644 486.09003777756567L1178.8313510716644 486.09003777756567Q1178.8313510716644 506.3508047965861 1170.3710524791234 517.5799283830497Q1161.9107538865824 528.8090519695132 1146.87998963386 528.8090519695132L1146.87998963386 528.8090519695132Q1129.629770425692 528.8090519695132 1121.7188418716275 513.6244641060175L1121.7188418716275 513.6244641060175L1121.0815726269946 513.6244641060175L1121.0815726269946 558.5629332534108L1108.4240869404916 558.5629332534108ZM1141.957634089109 517.5799283830497L1141.957634089109 517.5799283830497Q1153.032934064799 517.5799283830497 1159.1419288926597 510.85563911209493Q1165.2289489189816 504.1313498411402 1165.2289489189816 493.0560498654501L1165.2289489189816 493.0560498654501L1165.2289489189816 479.1460004912203Q1165.2289489189816 468.0707005155302 1159.1419288926597 461.34641124457545Q1153.032934064799 454.6221219736208 1141.957634089109 454.6221219736208L1141.957634089109 454.6221219736208Q1137.6945225905297 454.6221219736208 1133.892881924271 455.72086205057417Q1130.0912412580124 456.8196021275275 1127.2564918594726 458.97313267835614Q1124.3997676593938 461.1046884276457 1122.7516575439638 464.1811606431152Q1121.0815726269946 467.27960766012376 1121.0815726269946 471.3888955479294L1121.0815726269946 471.3888955479294L1121.0815726269946 500.813154808741Q1121.0815726269946 504.9224426965467 1122.7516575439638 508.0208897135552Q1124.3997676593938 511.09736192902466 1127.2564918594726 513.2289176783142Q1130.0912412580124 515.3604734276039 1133.892881924271 516.4811883060963Q1137.6945225905297 517.5799283830497 1141.957634089109 517.5799283830497ZM1235.7900366609279 528.8090519695132L1235.7900366609279 528.8090519695132Q1227.2418388622305 528.8090519695132 1220.3637259805023 525.8204789602Q1213.4856130987741 522.8099311493477 1208.6511567601792 517.1843819553465Q1203.8386752231236 511.58080756288416 1201.2895982445916 503.735803413437Q1198.762496067599 495.91277406552894 1198.762496067599 486.09003777756567L1198.762496067599 486.09003777756567Q1198.762496067599 476.443099901915 1201.2895982445916 468.5321713478506Q1203.8386752231236 460.6212427937862 1208.6511567601792 455.017668401324Q1213.4856130987741 449.39211920732265 1220.3637259805023 446.3815713964704Q1227.2418388622305 443.3710235856181 1235.7900366609279 443.3710235856181L1235.7900366609279 443.3710235856181Q1244.3382344596253 443.3710235856181 1251.2163473413534 446.3815713964704Q1258.0944602230816 449.39211920732265 1262.9289165616765 455.017668401324Q1267.7413980987321 460.6212427937862 1270.290475077264 468.5321713478506Q1272.8175772542568 476.443099901915 1272.8175772542568 486.09003777756567L1272.8175772542568 486.09003777756567Q1272.8175772542568 495.91277406552894 1270.290475077264 503.735803413437Q1267.7413980987321 511.58080756288416 1262.9289165616765 517.1843819553465Q1258.0944602230816 522.8099311493477 1251.2163473413534 525.8204789602Q1244.3382344596253 528.8090519695132 1235.7900366609279 528.8090519695132ZM1235.7900366609279 517.9095504061356L1235.7900366609279 517.9095504061356Q1246.3818910027585 517.9095504061356 1252.8864322583224 511.58080756288416Q1259.3689987123475 505.2520647196327 1259.3689987123475 491.95730978849673L1259.3689987123475 491.95730978849673L1259.3689987123475 480.24474056817365Q1259.3689987123475 466.94998563703774 1252.8864322583224 460.6212427937862Q1246.3818910027585 454.29249995053476 1235.7900366609279 454.29249995053476L1235.7900366609279 454.29249995053476Q1225.1981823190972 454.29249995053476 1218.693641063533 460.6212427937862Q1212.2110746095082 466.94998563703774 1212.2110746095082 480.24474056817365L1212.2110746095082 480.24474056817365L1212.2110746095082 491.95730978849673Q1212.2110746095082 505.2520647196327 1218.693641063533 511.58080756288416Q1225.1981823190972 517.9095504061356 1235.7900366609279 517.9095504061356ZM1295.913093671817 526.9192190371534L1295.913093671817 516.1515662830102L1324.3924364664485 516.1515662830102L1324.3924364664485 420.605129191144L1295.913093671817 420.605129191144L1295.913093671817 409.8374764370009L1337.0499221529517 409.8374764370009L1337.0499221529517 516.1515662830102L1365.5292649475832 516.1515662830102L1365.5292649475832 526.9192190371534L1295.913093671817 526.9192190371534ZM1430.7065263124582 427.2415192559424L1430.7065263124582 427.2415192559424Q1425.168876324613 427.2415192559424 1422.9713961707062 424.9561398958794Q1420.7519412152606 422.6487857342773 1420.7519412152606 419.1767670911046L1420.7519412152606 419.1767670911046L1420.7519412152606 416.64966491411184Q1420.7519412152606 413.1556714694001 1422.9713961707062 410.870292109337Q1425.168876324613 408.5629379477349 1430.7065263124582 408.5629379477349L1430.7065263124582 408.5629379477349Q1436.244176300303 408.5629379477349 1438.463631255749 410.870292109337Q1440.6830862111947 413.1556714694001 1440.6830862111947 416.64966491411184L1440.6830862111947 416.64966491411184L1440.6830862111947 419.1767670911046Q1440.6830862111947 422.6487857342773 1438.463631255749 424.9561398958794Q1436.244176300303 427.2415192559424 1430.7065263124582 427.2415192559424ZM1394.9535242083948 526.9192190371534L1394.9535242083948 516.1515662830102L1424.3777834692066 516.1515662830102L1424.3777834692066 456.0285092721211L1394.9535242083948 456.0285092721211L1394.9535242083948 445.282831319517L1437.0352691557096 445.282831319517L1437.0352691557096 516.1515662830102L1464.5696954841615 516.1515662830102L1464.5696954841615 526.9192190371534L1394.9535242083948 526.9192190371534ZM1556.3364667113078 526.9192190371534L1524.538928884277 526.9192190371534Q1515.1996382301732 526.9192190371534 1510.848627525438 521.6892162708552Q1506.4976168207024 516.4811883060963 1506.4976168207024 508.2406377289459L1506.4976168207024 508.2406377289459L1506.4976168207024 456.0285092721211L1479.2928125153367 456.0285092721211L1479.2928125153367 445.282831319517L1499.5316047328179 445.282831319517Q1503.662867422163 445.282831319517 1505.3109775375929 443.6127464025479Q1506.981062454562 441.9646362871178 1506.981062454562 437.83337359777306L1506.981062454562 437.83337359777306L1506.981062454562 416.4738665017993L1519.1551025072054 416.4738665017993L1519.1551025072054 445.282831319517L1556.3364667113078 445.282831319517L1556.3364667113078 456.0285092721211L1519.1551025072054 456.0285092721211L1519.1551025072054 516.1515662830102L1556.3364667113078 516.1515662830102L1556.3364667113078 526.9192190371534ZM1655.069250026339 526.9192190371534L1646.3672286168683 526.9192190371534Q1638.9397456966633 526.9192190371534 1635.7753742750376 523.1175783708948Q1632.611002853412 519.315937704636 1631.8199099980054 513.6244641060175L1631.8199099980054 513.6244641060175L1631.0288171425989 513.6244641060175Q1628.3259165532936 520.7442998046754 1622.3927201377453 524.7876632878638Q1616.459523722197 528.8090519695132 1606.5049386249996 528.8090519695132L1606.5049386249996 528.8090519695132Q1593.6716545261838 528.8090519695132 1586.0903479952055 522.1726619047148Q1578.4870666626882 515.5362718399164 1578.4870666626882 503.9775262303668L1578.4870666626882 503.9775262303668Q1578.4870666626882 492.5945790331297 1586.7935416444557 486.4196598006517Q1595.1000166262234 480.24474056817365 1613.6247743236572 480.24474056817365L1613.6247743236572 480.24474056817365L1631.0288171425989 480.24474056817365L1631.0288171425989 472.1799884033358Q1631.0288171425989 463.148344970779 1625.9526379870745 458.6435106552702Q1620.8984336330886 454.1386763397613 1611.559142978985 454.1386763397613L1611.559142978985 454.1386763397613Q1603.3405672033737 454.1386763397613 1598.1105644370755 457.3909469675433Q1592.8805616707773 460.6212427937862 1589.7161902491516 466.1588927816313L1589.7161902491516 466.1588927816313L1581.1899672519935 459.8301499383798Q1582.7721529628063 456.6657785167541 1585.4530787505726 453.6552307059018Q1588.134004538339 450.6666576965886 1592.0894688153712 448.3593035349865Q1596.0449330924032 446.07392417492343 1601.1211122479278 444.7334612810403Q1606.1753166019134 443.3710235856181 1612.3502358343912 443.3710235856181L1612.3502358343912 443.3710235856181Q1626.7437308424808 443.3710235856181 1635.2040294350218 450.6666576965886Q1643.6863028291018 457.94031700602 1643.6863028291018 470.9054499140699L1643.6863028291018 470.9054499140699L1643.6863028291018 515.8439190614633L1655.069250026339 515.8439190614633L1655.069250026339 526.9192190371534ZM1608.7024187789061 518.2171976276826L1608.7024187789061 518.2171976276826Q1613.6247743236572 518.2171976276826 1617.6461630053068 517.0305583445729Q1621.6895264884952 515.8439190614633 1624.7000742993473 513.8661869229472Q1627.6886473086606 511.8884547844311 1629.3587322256299 509.1196297905086Q1631.0288171425989 506.3508047965861 1631.0288171425989 503.18643337496036L1631.0288171425989 503.18643337496036L1631.0288171425989 489.7378548330509L1613.6247743236572 489.7378548330509Q1602.2198523248812 489.7378548330509 1597.0118243601223 492.90222625467663Q1591.7818215938241 496.06659767630237 1591.7818215938241 502.08769329800697L1591.7818215938241 502.08769329800697L1591.7818215938241 505.4058883304062Q1591.7818215938241 511.73463117365765 1596.286655909333 514.9649269999006Q1600.7914902248417 518.2171976276826 1608.7024187789061 518.2171976276826ZM1691.151874153488 526.9192190371534L1678.4943884669851 526.9192190371534L1678.4943884669851 445.282831319517L1691.151874153488 445.282831319517L1691.151874153488 458.5775862506529L1691.767168596582 458.5775862506529Q1693.041707085848 455.5670384398007 1694.9315400182077 452.79821344587816Q1696.8433477521066 450.02938845195564 1699.612172746029 447.96375710728324Q1702.3809977399517 445.92010056414995 1706.1826384062106 444.645562074884Q1709.9623042709302 443.3710235856181 1715.0384834264546 443.3710235856181L1715.0384834264546 443.3710235856181Q1727.8497927237313 443.3710235856181 1735.6068976670222 451.52367495661224Q1743.364002610313 459.6763263276063 1743.364002610313 474.5532669695552L1743.364002610313 474.5532669695552L1743.364002610313 526.9192190371534L1730.7065169238099 526.9192190371534L1730.7065169238099 476.772721925001Q1730.7065169238099 465.52162353699833 1725.7841613790588 460.0718727553095Q1720.8837806358465 454.6221219736208 1711.3906663709693 454.6221219736208L1711.3906663709693 454.6221219736208Q1707.5890257047108 454.6221219736208 1703.9631834507645 455.5670384398007Q1700.3153663952794 456.5119549059806 1697.4806169967396 458.4017878383404Q1694.6238927966606 460.3135955722393 1692.8878834750744 463.32414338309155Q1691.151874153488 466.31271639240475 1691.151874153488 470.26818066943696L1691.151874153488 470.26818066943696L1691.151874153488 526.9192190371534ZM1805.376892553562 528.8090519695132L1805.376892553562 528.8090519695132Q1796.8286947548645 528.8090519695132 1789.9505818731363 525.8204789602Q1783.0724689914082 522.8099311493477 1778.2380126528133 517.1843819553465Q1773.4255311157576 511.58080756288416 1770.8764541372257 503.735803413437Q1768.349351960233 495.91277406552894 1768.349351960233 486.09003777756567L1768.349351960233 486.09003777756567Q1768.349351960233 476.443099901915 1770.8764541372257 468.5321713478506Q1773.4255311157576 460.6212427937862 1778.2380126528133 455.017668401324Q1783.0724689914082 449.39211920732265 1789.9505818731363 446.3815713964704Q1796.8286947548645 443.3710235856181 1805.376892553562 443.3710235856181L1805.376892553562 443.3710235856181Q1813.9250903522593 443.3710235856181 1820.8032032339875 446.3815713964704Q1827.6813161157156 449.39211920732265 1832.5157724543105 455.017668401324Q1837.3282539913662 460.6212427937862 1839.8773309698981 468.5321713478506Q1842.4044331468908 476.443099901915 1842.4044331468908 486.09003777756567L1842.4044331468908 486.09003777756567Q1842.4044331468908 495.91277406552894 1839.8773309698981 503.735803413437Q1837.3282539913662 511.58080756288416 1832.5157724543105 517.1843819553465Q1827.6813161157156 522.8099311493477 1820.8032032339875 525.8204789602Q1813.9250903522593 528.8090519695132 1805.376892553562 528.8090519695132ZM1805.376892553562 517.9095504061356L1805.376892553562 517.9095504061356Q1815.9687468953925 517.9095504061356 1822.4732881509565 511.58080756288416Q1828.9558546049814 505.2520647196327 1828.9558546049814 491.95730978849673L1828.9558546049814 491.95730978849673L1828.9558546049814 480.24474056817365Q1828.9558546049814 466.94998563703774 1822.4732881509565 460.6212427937862Q1815.9687468953925 454.29249995053476 1805.376892553562 454.29249995053476L1805.376892553562 454.29249995053476Q1794.7850382117313 454.29249995053476 1788.2804969561673 460.6212427937862Q1781.7979305021422 466.94998563703774 1781.7979305021422 480.24474056817365L1781.7979305021422 480.24474056817365L1781.7979305021422 491.95730978849673Q1781.7979305021422 505.2520647196327 1788.2804969561673 511.58080756288416Q1794.7850382117313 517.9095504061356 1805.376892553562 517.9095504061356ZM1900.3080352023344 528.3475811371928L1900.3080352023344 528.3475811371928Q1893.825468748309 528.3475811371928 1891.2104673651602 525.6446805478874Q1888.5954659820113 522.9637547601212 1888.5954659820113 518.8544668723156L1888.5954659820113 518.8544668723156L1888.5954659820113 515.9977426722368Q1888.5954659820113 511.8884547844311 1891.2104673651602 509.20752899666485Q1893.825468748309 506.5046284073596 1900.3080352023344 506.5046284073596L1900.3080352023344 506.5046284073596Q1906.7906016563593 506.5046284073596 1909.4056030395082 509.20752899666485Q1912.0206044226575 511.8884547844311 1912.0206044226575 515.9977426722368L1912.0206044226575 515.9977426722368L1912.0206044226575 518.8544668723156Q1912.0206044226575 522.9637547601212 1909.4056030395082 525.6446805478874Q1906.7906016563593 528.3475811371928 1900.3080352023344 528.3475811371928ZM2000.2933822050923 427.2415192559424L2000.2933822050923 427.2415192559424Q1994.755732217247 427.2415192559424 1992.5582520633402 424.9561398958794Q1990.3387971078946 422.6487857342773 1990.3387971078946 419.1767670911046L1990.3387971078946 419.1767670911046L1990.3387971078946 416.64966491411184Q1990.3387971078946 413.1556714694001 1992.5582520633402 410.870292109337Q1994.755732217247 408.5629379477349 2000.2933822050923 408.5629379477349L2000.2933822050923 408.5629379477349Q2005.8310321929375 408.5629379477349 2008.0504871483831 410.870292109337Q2010.2699421038287 413.1556714694001 2010.2699421038287 416.64966491411184L2010.2699421038287 416.64966491411184L2010.2699421038287 419.1767670911046Q2010.2699421038287 422.6487857342773 2008.0504871483831 424.9561398958794Q2005.8310321929375 427.2415192559424 2000.2933822050923 427.2415192559424ZM1964.5403801010289 526.9192190371534L1964.5403801010289 516.1515662830102L1993.9646393618405 516.1515662830102L1993.9646393618405 456.0285092721211L1964.5403801010289 456.0285092721211L1964.5403801010289 445.282831319517L2006.6221250483436 445.282831319517L2006.6221250483436 516.1515662830102L2034.1565513767955 516.1515662830102L2034.1565513767955 526.9192190371534L1964.5403801010289 526.9192190371534ZM2090.170320499879 528.8090519695132L2090.170320499879 528.8090519695132Q2081.6221227011815 528.8090519695132 2074.7440098194534 525.8204789602Q2067.865896937725 522.8099311493477 2063.0314405991303 517.1843819553465Q2058.2189590620746 511.58080756288416 2055.6698820835427 503.735803413437Q2053.14277990655 495.91277406552894 2053.14277990655 486.09003777756567L2053.14277990655 486.09003777756567Q2053.14277990655 476.443099901915 2055.6698820835427 468.5321713478506Q2058.2189590620746 460.6212427937862 2063.0314405991303 455.017668401324Q2067.865896937725 449.39211920732265 2074.7440098194534 446.3815713964704Q2081.6221227011815 443.3710235856181 2090.170320499879 443.3710235856181L2090.170320499879 443.3710235856181Q2098.7185182985763 443.3710235856181 2105.5966311803045 446.3815713964704Q2112.4747440620326 449.39211920732265 2117.3092004006276 455.017668401324Q2122.121681937683 460.6212427937862 2124.670758916215 468.5321713478506Q2127.197861093208 476.443099901915 2127.197861093208 486.09003777756567L2127.197861093208 486.09003777756567Q2127.197861093208 495.91277406552894 2124.670758916215 503.735803413437Q2122.121681937683 511.58080756288416 2117.3092004006276 517.1843819553465Q2112.4747440620326 522.8099311493477 2105.5966311803045 525.8204789602Q2098.7185182985763 528.8090519695132 2090.170320499879 528.8090519695132ZM2090.170320499879 517.9095504061356L2090.170320499879 517.9095504061356Q2100.7621748417096 517.9095504061356 2107.2667160972737 511.58080756288416Q2113.749282551298 505.2520647196327 2113.749282551298 491.95730978849673L2113.749282551298 491.95730978849673L2113.749282551298 480.24474056817365Q2113.749282551298 466.94998563703774 2107.2667160972737 460.6212427937862Q2100.7621748417096 454.29249995053476 2090.170320499879 454.29249995053476L2090.170320499879 454.29249995053476Q2079.5784661580483 454.29249995053476 2073.073924902484 460.6212427937862Q2066.5913584484592 466.94998563703774 2066.5913584484592 480.24474056817365L2066.5913584484592 480.24474056817365L2066.5913584484592 491.95730978849673Q2066.5913584484592 505.2520647196327 2073.073924902484 511.58080756288416Q2079.5784661580483 517.9095504061356 2090.170320499879 517.9095504061356Z " fill="purple" transform="matrix(0.42419751989410603,0,0,0.42419751989410603,-27.352087271655904,94.87379970242723)"/></g></svg>