<?xml version="1.0" encoding="utf-8"?>
<svg xmlns="http://www.w3.org/2000/svg" xmlns:xlink="http://www.w3.org/1999/xlink" width="600" height="400" viewBox="0 0 2400 1600">
<defs>
  <clipPath id="clip360">
    <rect x="0" y="0" width="2400" height="1600"/>
  </clipPath>
</defs>
<path clip-path="url(#clip360)" d="
M0 1600 L2400 1600 L2400 0 L0 0  Z
  " fill="#ffffff" fill-rule="evenodd" fill-opacity="1"/>
<defs>
  <clipPath id="clip361">
    <rect x="480" y="0" width="1681" height="1600"/>
  </clipPath>
</defs>
<path clip-path="url(#clip360)" d="
M186.274 1486.45 L2352.76 1486.45 L2352.76 123.472 L186.274 123.472  Z
  " fill="#ffffff" fill-rule="evenodd" fill-opacity="1"/>
<defs>
  <clipPath id="clip362">
    <rect x="186" y="123" width="2167" height="1364"/>
  </clipPath>
</defs>
<polyline clip-path="url(#clip362)" style="stroke:#000000; stroke-linecap:butt; stroke-linejoin:round; stroke-width:2; stroke-opacity:0.1; fill:none" points="
  247.59,1486.45 247.59,123.472 
  "/>
<polyline clip-path="url(#clip362)" style="stroke:#000000; stroke-linecap:butt; stroke-linejoin:round; stroke-width:2; stroke-opacity:0.1; fill:none" points="
  758.552,1486.45 758.552,123.472 
  "/>
<polyline clip-path="url(#clip362)" style="stroke:#000000; stroke-linecap:butt; stroke-linejoin:round; stroke-width:2; stroke-opacity:0.1; fill:none" points="
  1269.51,1486.45 1269.51,123.472 
  "/>
<polyline clip-path="url(#clip362)" style="stroke:#000000; stroke-linecap:butt; stroke-linejoin:round; stroke-width:2; stroke-opacity:0.1; fill:none" points="
  1780.48,1486.45 1780.48,123.472 
  "/>
<polyline clip-path="url(#clip362)" style="stroke:#000000; stroke-linecap:butt; stroke-linejoin:round; stroke-width:2; stroke-opacity:0.1; fill:none" points="
  2291.44,1486.45 2291.44,123.472 
  "/>
<polyline clip-path="url(#clip360)" style="stroke:#000000; stroke-linecap:butt; stroke-linejoin:round; stroke-width:4; stroke-opacity:1; fill:none" points="
  186.274,1486.45 2352.76,1486.45 
  "/>
<polyline clip-path="url(#clip360)" style="stroke:#000000; stroke-linecap:butt; stroke-linejoin:round; stroke-width:4; stroke-opacity:1; fill:none" points="
  247.59,1486.45 247.59,1467.55 
  "/>
<polyline clip-path="url(#clip360)" style="stroke:#000000; stroke-linecap:butt; stroke-linejoin:round; stroke-width:4; stroke-opacity:1; fill:none" points="
  758.552,1486.45 758.552,1467.55 
  "/>
<polyline clip-path="url(#clip360)" style="stroke:#000000; stroke-linecap:butt; stroke-linejoin:round; stroke-width:4; stroke-opacity:1; fill:none" points="
  1269.51,1486.45 1269.51,1467.55 
  "/>
<polyline clip-path="url(#clip360)" style="stroke:#000000; stroke-linecap:butt; stroke-linejoin:round; stroke-width:4; stroke-opacity:1; fill:none" points="
  1780.48,1486.45 1780.48,1467.55 
  "/>
<polyline clip-path="url(#clip360)" style="stroke:#000000; stroke-linecap:butt; stroke-linejoin:round; stroke-width:4; stroke-opacity:1; fill:none" points="
  2291.44,1486.45 2291.44,1467.55 
  "/>
<path clip-path="url(#clip360)" d="M209.893 1517.37 Q206.282 1517.37 204.453 1520.93 Q202.648 1524.47 202.648 1531.6 Q202.648 1538.71 204.453 1542.27 Q206.282 1545.82 209.893 1545.82 Q213.527 1545.82 215.333 1542.27 Q217.161 1538.71 217.161 1531.6 Q217.161 1524.47 215.333 1520.93 Q213.527 1517.37 209.893 1517.37 M209.893 1513.66 Q215.703 1513.66 218.759 1518.27 Q221.837 1522.85 221.837 1531.6 Q221.837 1540.33 218.759 1544.94 Q215.703 1549.52 209.893 1549.52 Q204.083 1549.52 201.004 1544.94 Q197.949 1540.33 197.949 1531.6 Q197.949 1522.85 201.004 1518.27 Q204.083 1513.66 209.893 1513.66 Z" fill="#000000" fill-rule="evenodd" fill-opacity="1" /><path clip-path="url(#clip360)" d="M230.055 1542.97 L234.939 1542.97 L234.939 1548.85 L230.055 1548.85 L230.055 1542.97 Z" fill="#000000" fill-rule="evenodd" fill-opacity="1" /><path clip-path="url(#clip360)" d="M255.124 1517.37 Q251.513 1517.37 249.684 1520.93 Q247.879 1524.47 247.879 1531.6 Q247.879 1538.71 249.684 1542.27 Q251.513 1545.82 255.124 1545.82 Q258.758 1545.82 260.564 1542.27 Q262.393 1538.71 262.393 1531.6 Q262.393 1524.47 260.564 1520.93 Q258.758 1517.37 255.124 1517.37 M255.124 1513.66 Q260.934 1513.66 263.99 1518.27 Q267.069 1522.85 267.069 1531.6 Q267.069 1540.33 263.99 1544.94 Q260.934 1549.52 255.124 1549.52 Q249.314 1549.52 246.235 1544.94 Q243.18 1540.33 243.18 1531.6 Q243.18 1522.85 246.235 1518.27 Q249.314 1513.66 255.124 1513.66 Z" fill="#000000" fill-rule="evenodd" fill-opacity="1" /><path clip-path="url(#clip360)" d="M285.286 1517.37 Q281.675 1517.37 279.846 1520.93 Q278.041 1524.47 278.041 1531.6 Q278.041 1538.71 279.846 1542.27 Q281.675 1545.82 285.286 1545.82 Q288.92 1545.82 290.726 1542.27 Q292.555 1538.71 292.555 1531.6 Q292.555 1524.47 290.726 1520.93 Q288.92 1517.37 285.286 1517.37 M285.286 1513.66 Q291.096 1513.66 294.152 1518.27 Q297.23 1522.85 297.23 1531.6 Q297.23 1540.33 294.152 1544.94 Q291.096 1549.52 285.286 1549.52 Q279.476 1549.52 276.397 1544.94 Q273.342 1540.33 273.342 1531.6 Q273.342 1522.85 276.397 1518.27 Q279.476 1513.66 285.286 1513.66 Z" fill="#000000" fill-rule="evenodd" fill-opacity="1" /><path clip-path="url(#clip360)" d="M721.353 1517.37 Q717.742 1517.37 715.914 1520.93 Q714.108 1524.47 714.108 1531.6 Q714.108 1538.71 715.914 1542.27 Q717.742 1545.82 721.353 1545.82 Q724.988 1545.82 726.793 1542.27 Q728.622 1538.71 728.622 1531.6 Q728.622 1524.47 726.793 1520.93 Q724.988 1517.37 721.353 1517.37 M721.353 1513.66 Q727.164 1513.66 730.219 1518.27 Q733.298 1522.85 733.298 1531.6 Q733.298 1540.33 730.219 1544.94 Q727.164 1549.52 721.353 1549.52 Q715.543 1549.52 712.465 1544.94 Q709.409 1540.33 709.409 1531.6 Q709.409 1522.85 712.465 1518.27 Q715.543 1513.66 721.353 1513.66 Z" fill="#000000" fill-rule="evenodd" fill-opacity="1" /><path clip-path="url(#clip360)" d="M741.515 1542.97 L746.4 1542.97 L746.4 1548.85 L741.515 1548.85 L741.515 1542.97 Z" fill="#000000" fill-rule="evenodd" fill-opacity="1" /><path clip-path="url(#clip360)" d="M760.612 1544.91 L776.932 1544.91 L776.932 1548.85 L754.987 1548.85 L754.987 1544.91 Q757.649 1542.16 762.233 1537.53 Q766.839 1532.88 768.02 1531.53 Q770.265 1529.01 771.145 1527.27 Q772.048 1525.51 772.048 1523.82 Q772.048 1521.07 770.103 1519.33 Q768.182 1517.6 765.08 1517.6 Q762.881 1517.6 760.427 1518.36 Q757.997 1519.13 755.219 1520.68 L755.219 1515.95 Q758.043 1514.82 760.497 1514.24 Q762.95 1513.66 764.987 1513.66 Q770.358 1513.66 773.552 1516.35 Q776.747 1519.03 776.747 1523.52 Q776.747 1525.65 775.936 1527.57 Q775.149 1529.47 773.043 1532.07 Q772.464 1532.74 769.362 1535.95 Q766.261 1539.15 760.612 1544.91 Z" fill="#000000" fill-rule="evenodd" fill-opacity="1" /><path clip-path="url(#clip360)" d="M786.793 1514.29 L805.149 1514.29 L805.149 1518.22 L791.075 1518.22 L791.075 1526.7 Q792.094 1526.35 793.112 1526.19 Q794.131 1526 795.149 1526 Q800.936 1526 804.316 1529.17 Q807.695 1532.34 807.695 1537.76 Q807.695 1543.34 804.223 1546.44 Q800.751 1549.52 794.432 1549.52 Q792.256 1549.52 789.987 1549.15 Q787.742 1548.78 785.335 1548.04 L785.335 1543.34 Q787.418 1544.47 789.64 1545.03 Q791.862 1545.58 794.339 1545.58 Q798.344 1545.58 800.682 1543.48 Q803.02 1541.37 803.02 1537.76 Q803.02 1534.15 800.682 1532.04 Q798.344 1529.94 794.339 1529.94 Q792.464 1529.94 790.589 1530.35 Q788.737 1530.77 786.793 1531.65 L786.793 1514.29 Z" fill="#000000" fill-rule="evenodd" fill-opacity="1" /><path clip-path="url(#clip360)" d="M1231.82 1517.37 Q1228.21 1517.37 1226.38 1520.93 Q1224.57 1524.47 1224.57 1531.6 Q1224.57 1538.71 1226.38 1542.27 Q1228.21 1545.82 1231.82 1545.82 Q1235.45 1545.82 1237.26 1542.27 Q1239.09 1538.71 1239.09 1531.6 Q1239.09 1524.47 1237.26 1520.93 Q1235.45 1517.37 1231.82 1517.37 M1231.82 1513.66 Q1237.63 1513.66 1240.68 1518.27 Q1243.76 1522.85 1243.76 1531.6 Q1243.76 1540.33 1240.68 1544.94 Q1237.63 1549.52 1231.82 1549.52 Q1226.01 1549.52 1222.93 1544.94 Q1219.87 1540.33 1219.87 1531.6 Q1219.87 1522.85 1222.93 1518.27 Q1226.01 1513.66 1231.82 1513.66 Z" fill="#000000" fill-rule="evenodd" fill-opacity="1" /><path clip-path="url(#clip360)" d="M1251.98 1542.97 L1256.86 1542.97 L1256.86 1548.85 L1251.98 1548.85 L1251.98 1542.97 Z" fill="#000000" fill-rule="evenodd" fill-opacity="1" /><path clip-path="url(#clip360)" d="M1267.1 1514.29 L1285.45 1514.29 L1285.45 1518.22 L1271.38 1518.22 L1271.38 1526.7 Q1272.4 1526.35 1273.42 1526.19 Q1274.43 1526 1275.45 1526 Q1281.24 1526 1284.62 1529.17 Q1288 1532.34 1288 1537.76 Q1288 1543.34 1284.53 1546.44 Q1281.05 1549.52 1274.73 1549.52 Q1272.56 1549.52 1270.29 1549.15 Q1268.05 1548.78 1265.64 1548.04 L1265.64 1543.34 Q1267.72 1544.47 1269.94 1545.03 Q1272.17 1545.58 1274.64 1545.58 Q1278.65 1545.58 1280.98 1543.48 Q1283.32 1541.37 1283.32 1537.76 Q1283.32 1534.15 1280.98 1532.04 Q1278.65 1529.94 1274.64 1529.94 Q1272.77 1529.94 1270.89 1530.35 Q1269.04 1530.77 1267.1 1531.65 L1267.1 1514.29 Z" fill="#000000" fill-rule="evenodd" fill-opacity="1" /><path clip-path="url(#clip360)" d="M1307.21 1517.37 Q1303.6 1517.37 1301.77 1520.93 Q1299.97 1524.47 1299.97 1531.6 Q1299.97 1538.71 1301.77 1542.27 Q1303.6 1545.82 1307.21 1545.82 Q1310.85 1545.82 1312.65 1542.27 Q1314.48 1538.71 1314.48 1531.6 Q1314.48 1524.47 1312.65 1520.93 Q1310.85 1517.37 1307.21 1517.37 M1307.21 1513.66 Q1313.02 1513.66 1316.08 1518.27 Q1319.16 1522.85 1319.16 1531.6 Q1319.16 1540.33 1316.08 1544.94 Q1313.02 1549.52 1307.21 1549.52 Q1301.4 1549.52 1298.32 1544.94 Q1295.27 1540.33 1295.27 1531.6 Q1295.27 1522.85 1298.32 1518.27 Q1301.4 1513.66 1307.21 1513.66 Z" fill="#000000" fill-rule="evenodd" fill-opacity="1" /><path clip-path="url(#clip360)" d="M1743.28 1517.37 Q1739.67 1517.37 1737.84 1520.93 Q1736.03 1524.47 1736.03 1531.6 Q1736.03 1538.71 1737.84 1542.27 Q1739.67 1545.82 1743.28 1545.82 Q1746.91 1545.82 1748.72 1542.27 Q1750.55 1538.71 1750.55 1531.6 Q1750.55 1524.47 1748.72 1520.93 Q1746.91 1517.37 1743.28 1517.37 M1743.28 1513.66 Q1749.09 1513.66 1752.14 1518.27 Q1755.22 1522.85 1755.22 1531.6 Q1755.22 1540.33 1752.14 1544.94 Q1749.09 1549.52 1743.28 1549.52 Q1737.47 1549.52 1734.39 1544.94 Q1731.33 1540.33 1731.33 1531.6 Q1731.33 1522.85 1734.39 1518.27 Q1737.47 1513.66 1743.28 1513.66 Z" fill="#000000" fill-rule="evenodd" fill-opacity="1" /><path clip-path="url(#clip360)" d="M1763.44 1542.97 L1768.32 1542.97 L1768.32 1548.85 L1763.44 1548.85 L1763.44 1542.97 Z" fill="#000000" fill-rule="evenodd" fill-opacity="1" /><path clip-path="url(#clip360)" d="M1777.33 1514.29 L1799.55 1514.29 L1799.55 1516.28 L1787.01 1548.85 L1782.12 1548.85 L1793.93 1518.22 L1777.33 1518.22 L1777.33 1514.29 Z" fill="#000000" fill-rule="evenodd" fill-opacity="1" /><path clip-path="url(#clip360)" d="M1808.72 1514.29 L1827.07 1514.29 L1827.07 1518.22 L1813 1518.22 L1813 1526.7 Q1814.02 1526.35 1815.04 1526.19 Q1816.06 1526 1817.07 1526 Q1822.86 1526 1826.24 1529.17 Q1829.62 1532.34 1829.62 1537.76 Q1829.62 1543.34 1826.15 1546.44 Q1822.68 1549.52 1816.36 1549.52 Q1814.18 1549.52 1811.91 1549.15 Q1809.67 1548.78 1807.26 1548.04 L1807.26 1543.34 Q1809.34 1544.47 1811.57 1545.03 Q1813.79 1545.58 1816.26 1545.58 Q1820.27 1545.58 1822.61 1543.48 Q1824.95 1541.37 1824.95 1537.76 Q1824.95 1534.15 1822.61 1532.04 Q1820.27 1529.94 1816.26 1529.94 Q1814.39 1529.94 1812.51 1530.35 Q1810.66 1530.77 1808.72 1531.65 L1808.72 1514.29 Z" fill="#000000" fill-rule="evenodd" fill-opacity="1" /><path clip-path="url(#clip360)" d="M2243.51 1544.91 L2251.15 1544.91 L2251.15 1518.55 L2242.84 1520.21 L2242.84 1515.95 L2251.1 1514.29 L2255.78 1514.29 L2255.78 1544.91 L2263.42 1544.91 L2263.42 1548.85 L2243.51 1548.85 L2243.51 1544.91 Z" fill="#000000" fill-rule="evenodd" fill-opacity="1" /><path clip-path="url(#clip360)" d="M2272.86 1542.97 L2277.75 1542.97 L2277.75 1548.85 L2272.86 1548.85 L2272.86 1542.97 Z" fill="#000000" fill-rule="evenodd" fill-opacity="1" /><path clip-path="url(#clip360)" d="M2297.93 1517.37 Q2294.32 1517.37 2292.49 1520.93 Q2290.69 1524.47 2290.69 1531.6 Q2290.69 1538.71 2292.49 1542.27 Q2294.32 1545.82 2297.93 1545.82 Q2301.57 1545.82 2303.37 1542.27 Q2305.2 1538.71 2305.2 1531.6 Q2305.2 1524.47 2303.37 1520.93 Q2301.57 1517.37 2297.93 1517.37 M2297.93 1513.66 Q2303.74 1513.66 2306.8 1518.27 Q2309.88 1522.85 2309.88 1531.6 Q2309.88 1540.33 2306.8 1544.94 Q2303.74 1549.52 2297.93 1549.52 Q2292.12 1549.52 2289.04 1544.94 Q2285.99 1540.33 2285.99 1531.6 Q2285.99 1522.85 2289.04 1518.27 Q2292.12 1513.66 2297.93 1513.66 Z" fill="#000000" fill-rule="evenodd" fill-opacity="1" /><path clip-path="url(#clip360)" d="M2328.1 1517.37 Q2324.48 1517.37 2322.66 1520.93 Q2320.85 1524.47 2320.85 1531.6 Q2320.85 1538.71 2322.66 1542.27 Q2324.48 1545.82 2328.1 1545.82 Q2331.73 1545.82 2333.54 1542.27 Q2335.36 1538.71 2335.36 1531.6 Q2335.36 1524.47 2333.54 1520.93 Q2331.73 1517.37 2328.1 1517.37 M2328.1 1513.66 Q2333.91 1513.66 2336.96 1518.27 Q2340.04 1522.85 2340.04 1531.6 Q2340.04 1540.33 2336.96 1544.94 Q2333.91 1549.52 2328.1 1549.52 Q2322.29 1549.52 2319.21 1544.94 Q2316.15 1540.33 2316.15 1531.6 Q2316.15 1522.85 2319.21 1518.27 Q2322.29 1513.66 2328.1 1513.66 Z" fill="#000000" fill-rule="evenodd" fill-opacity="1" /><polyline clip-path="url(#clip362)" style="stroke:#000000; stroke-linecap:butt; stroke-linejoin:round; stroke-width:2; stroke-opacity:0.1; fill:none" points="
  186.274,1447.87 2352.76,1447.87 
  "/>
<polyline clip-path="url(#clip362)" style="stroke:#000000; stroke-linecap:butt; stroke-linejoin:round; stroke-width:2; stroke-opacity:0.1; fill:none" points="
  186.274,1126.42 2352.76,1126.42 
  "/>
<polyline clip-path="url(#clip362)" style="stroke:#000000; stroke-linecap:butt; stroke-linejoin:round; stroke-width:2; stroke-opacity:0.1; fill:none" points="
  186.274,804.96 2352.76,804.96 
  "/>
<polyline clip-path="url(#clip362)" style="stroke:#000000; stroke-linecap:butt; stroke-linejoin:round; stroke-width:2; stroke-opacity:0.1; fill:none" points="
  186.274,483.503 2352.76,483.503 
  "/>
<polyline clip-path="url(#clip362)" style="stroke:#000000; stroke-linecap:butt; stroke-linejoin:round; stroke-width:2; stroke-opacity:0.1; fill:none" points="
  186.274,162.047 2352.76,162.047 
  "/>
<polyline clip-path="url(#clip360)" style="stroke:#000000; stroke-linecap:butt; stroke-linejoin:round; stroke-width:4; stroke-opacity:1; fill:none" points="
  186.274,1486.45 186.274,123.472 
  "/>
<polyline clip-path="url(#clip360)" style="stroke:#000000; stroke-linecap:butt; stroke-linejoin:round; stroke-width:4; stroke-opacity:1; fill:none" points="
  186.274,1447.87 205.172,1447.87 
  "/>
<polyline clip-path="url(#clip360)" style="stroke:#000000; stroke-linecap:butt; stroke-linejoin:round; stroke-width:4; stroke-opacity:1; fill:none" points="
  186.274,1126.42 205.172,1126.42 
  "/>
<polyline clip-path="url(#clip360)" style="stroke:#000000; stroke-linecap:butt; stroke-linejoin:round; stroke-width:4; stroke-opacity:1; fill:none" points="
  186.274,804.96 205.172,804.96 
  "/>
<polyline clip-path="url(#clip360)" style="stroke:#000000; stroke-linecap:butt; stroke-linejoin:round; stroke-width:4; stroke-opacity:1; fill:none" points="
  186.274,483.503 205.172,483.503 
  "/>
<polyline clip-path="url(#clip360)" style="stroke:#000000; stroke-linecap:butt; stroke-linejoin:round; stroke-width:4; stroke-opacity:1; fill:none" points="
  186.274,162.047 205.172,162.047 
  "/>
<path clip-path="url(#clip360)" d="M62.9365 1433.67 Q59.3254 1433.67 57.4967 1437.24 Q55.6912 1440.78 55.6912 1447.91 Q55.6912 1455.01 57.4967 1458.58 Q59.3254 1462.12 62.9365 1462.12 Q66.5707 1462.12 68.3763 1458.58 Q70.205 1455.01 70.205 1447.91 Q70.205 1440.78 68.3763 1437.24 Q66.5707 1433.67 62.9365 1433.67 M62.9365 1429.97 Q68.7467 1429.97 71.8022 1434.57 Q74.8809 1439.16 74.8809 1447.91 Q74.8809 1456.63 71.8022 1461.24 Q68.7467 1465.82 62.9365 1465.82 Q57.1264 1465.82 54.0477 1461.24 Q50.9921 1456.63 50.9921 1447.91 Q50.9921 1439.16 54.0477 1434.57 Q57.1264 1429.97 62.9365 1429.97 Z" fill="#000000" fill-rule="evenodd" fill-opacity="1" /><path clip-path="url(#clip360)" d="M83.0984 1459.27 L87.9827 1459.27 L87.9827 1465.15 L83.0984 1465.15 L83.0984 1459.27 Z" fill="#000000" fill-rule="evenodd" fill-opacity="1" /><path clip-path="url(#clip360)" d="M108.168 1433.67 Q104.557 1433.67 102.728 1437.24 Q100.922 1440.78 100.922 1447.91 Q100.922 1455.01 102.728 1458.58 Q104.557 1462.12 108.168 1462.12 Q111.802 1462.12 113.608 1458.58 Q115.436 1455.01 115.436 1447.91 Q115.436 1440.78 113.608 1437.24 Q111.802 1433.67 108.168 1433.67 M108.168 1429.97 Q113.978 1429.97 117.033 1434.57 Q120.112 1439.16 120.112 1447.91 Q120.112 1456.63 117.033 1461.24 Q113.978 1465.82 108.168 1465.82 Q102.358 1465.82 99.2789 1461.24 Q96.2234 1456.63 96.2234 1447.91 Q96.2234 1439.16 99.2789 1434.57 Q102.358 1429.97 108.168 1429.97 Z" fill="#000000" fill-rule="evenodd" fill-opacity="1" /><path clip-path="url(#clip360)" d="M138.33 1433.67 Q134.719 1433.67 132.89 1437.24 Q131.084 1440.78 131.084 1447.91 Q131.084 1455.01 132.89 1458.58 Q134.719 1462.12 138.33 1462.12 Q141.964 1462.12 143.769 1458.58 Q145.598 1455.01 145.598 1447.91 Q145.598 1440.78 143.769 1437.24 Q141.964 1433.67 138.33 1433.67 M138.33 1429.97 Q144.14 1429.97 147.195 1434.57 Q150.274 1439.16 150.274 1447.91 Q150.274 1456.63 147.195 1461.24 Q144.14 1465.82 138.33 1465.82 Q132.519 1465.82 129.441 1461.24 Q126.385 1456.63 126.385 1447.91 Q126.385 1439.16 129.441 1434.57 Q132.519 1429.97 138.33 1429.97 Z" fill="#000000" fill-rule="evenodd" fill-opacity="1" /><path clip-path="url(#clip360)" d="M63.9319 1112.22 Q60.3208 1112.22 58.4921 1115.78 Q56.6865 1119.32 56.6865 1126.45 Q56.6865 1133.56 58.4921 1137.12 Q60.3208 1140.66 63.9319 1140.66 Q67.5661 1140.66 69.3717 1137.12 Q71.2004 1133.56 71.2004 1126.45 Q71.2004 1119.32 69.3717 1115.78 Q67.5661 1112.22 63.9319 1112.22 M63.9319 1108.51 Q69.742 1108.51 72.7976 1113.12 Q75.8763 1117.7 75.8763 1126.45 Q75.8763 1135.18 72.7976 1139.78 Q69.742 1144.37 63.9319 1144.37 Q58.1217 1144.37 55.043 1139.78 Q51.9875 1135.18 51.9875 1126.45 Q51.9875 1117.7 55.043 1113.12 Q58.1217 1108.51 63.9319 1108.51 Z" fill="#000000" fill-rule="evenodd" fill-opacity="1" /><path clip-path="url(#clip360)" d="M84.0938 1137.82 L88.978 1137.82 L88.978 1143.7 L84.0938 1143.7 L84.0938 1137.82 Z" fill="#000000" fill-rule="evenodd" fill-opacity="1" /><path clip-path="url(#clip360)" d="M103.191 1139.76 L119.51 1139.76 L119.51 1143.7 L97.566 1143.7 L97.566 1139.76 Q100.228 1137.01 104.811 1132.38 Q109.418 1127.72 110.598 1126.38 Q112.844 1123.86 113.723 1122.12 Q114.626 1120.36 114.626 1118.67 Q114.626 1115.92 112.682 1114.18 Q110.76 1112.45 107.658 1112.45 Q105.459 1112.45 103.006 1113.21 Q100.575 1113.97 97.7974 1115.53 L97.7974 1110.8 Q100.621 1109.67 103.075 1109.09 Q105.529 1108.51 107.566 1108.51 Q112.936 1108.51 116.131 1111.2 Q119.325 1113.88 119.325 1118.37 Q119.325 1120.5 118.515 1122.42 Q117.728 1124.32 115.621 1126.91 Q115.043 1127.59 111.941 1130.8 Q108.839 1134 103.191 1139.76 Z" fill="#000000" fill-rule="evenodd" fill-opacity="1" /><path clip-path="url(#clip360)" d="M129.371 1109.14 L147.728 1109.14 L147.728 1113.07 L133.654 1113.07 L133.654 1121.54 Q134.672 1121.2 135.691 1121.03 Q136.709 1120.85 137.728 1120.85 Q143.515 1120.85 146.894 1124.02 Q150.274 1127.19 150.274 1132.61 Q150.274 1138.19 146.802 1141.29 Q143.33 1144.37 137.01 1144.37 Q134.834 1144.37 132.566 1144 Q130.32 1143.63 127.913 1142.89 L127.913 1138.19 Q129.996 1139.32 132.219 1139.88 Q134.441 1140.43 136.918 1140.43 Q140.922 1140.43 143.26 1138.33 Q145.598 1136.22 145.598 1132.61 Q145.598 1129 143.26 1126.89 Q140.922 1124.78 136.918 1124.78 Q135.043 1124.78 133.168 1125.2 Q131.316 1125.62 129.371 1126.5 L129.371 1109.14 Z" fill="#000000" fill-rule="evenodd" fill-opacity="1" /><path clip-path="url(#clip360)" d="M62.9365 790.759 Q59.3254 790.759 57.4967 794.323 Q55.6912 797.865 55.6912 804.995 Q55.6912 812.101 57.4967 815.666 Q59.3254 819.208 62.9365 819.208 Q66.5707 819.208 68.3763 815.666 Q70.205 812.101 70.205 804.995 Q70.205 797.865 68.3763 794.323 Q66.5707 790.759 62.9365 790.759 M62.9365 787.055 Q68.7467 787.055 71.8022 791.661 Q74.8809 796.245 74.8809 804.995 Q74.8809 813.722 71.8022 818.328 Q68.7467 822.911 62.9365 822.911 Q57.1264 822.911 54.0477 818.328 Q50.9921 813.722 50.9921 804.995 Q50.9921 796.245 54.0477 791.661 Q57.1264 787.055 62.9365 787.055 Z" fill="#000000" fill-rule="evenodd" fill-opacity="1" /><path clip-path="url(#clip360)" d="M83.0984 816.36 L87.9827 816.36 L87.9827 822.24 L83.0984 822.24 L83.0984 816.36 Z" fill="#000000" fill-rule="evenodd" fill-opacity="1" /><path clip-path="url(#clip360)" d="M98.2141 787.68 L116.57 787.68 L116.57 791.615 L102.496 791.615 L102.496 800.087 Q103.515 799.74 104.534 799.578 Q105.552 799.393 106.571 799.393 Q112.358 799.393 115.737 802.564 Q119.117 805.735 119.117 811.152 Q119.117 816.731 115.645 819.833 Q112.172 822.911 105.853 822.911 Q103.677 822.911 101.409 822.541 Q99.1632 822.171 96.7558 821.43 L96.7558 816.731 Q98.8391 817.865 101.061 818.421 Q103.284 818.976 105.76 818.976 Q109.765 818.976 112.103 816.87 Q114.441 814.763 114.441 811.152 Q114.441 807.541 112.103 805.435 Q109.765 803.328 105.76 803.328 Q103.885 803.328 102.01 803.745 Q100.159 804.161 98.2141 805.041 L98.2141 787.68 Z" fill="#000000" fill-rule="evenodd" fill-opacity="1" /><path clip-path="url(#clip360)" d="M138.33 790.759 Q134.719 790.759 132.89 794.323 Q131.084 797.865 131.084 804.995 Q131.084 812.101 132.89 815.666 Q134.719 819.208 138.33 819.208 Q141.964 819.208 143.769 815.666 Q145.598 812.101 145.598 804.995 Q145.598 797.865 143.769 794.323 Q141.964 790.759 138.33 790.759 M138.33 787.055 Q144.14 787.055 147.195 791.661 Q150.274 796.245 150.274 804.995 Q150.274 813.722 147.195 818.328 Q144.14 822.911 138.33 822.911 Q132.519 822.911 129.441 818.328 Q126.385 813.722 126.385 804.995 Q126.385 796.245 129.441 791.661 Q132.519 787.055 138.33 787.055 Z" fill="#000000" fill-rule="evenodd" fill-opacity="1" /><path clip-path="url(#clip360)" d="M63.9319 469.302 Q60.3208 469.302 58.4921 472.867 Q56.6865 476.409 56.6865 483.538 Q56.6865 490.645 58.4921 494.209 Q60.3208 497.751 63.9319 497.751 Q67.5661 497.751 69.3717 494.209 Q71.2004 490.645 71.2004 483.538 Q71.2004 476.409 69.3717 472.867 Q67.5661 469.302 63.9319 469.302 M63.9319 465.598 Q69.742 465.598 72.7976 470.205 Q75.8763 474.788 75.8763 483.538 Q75.8763 492.265 72.7976 496.871 Q69.742 501.455 63.9319 501.455 Q58.1217 501.455 55.043 496.871 Q51.9875 492.265 51.9875 483.538 Q51.9875 474.788 55.043 470.205 Q58.1217 465.598 63.9319 465.598 Z" fill="#000000" fill-rule="evenodd" fill-opacity="1" /><path clip-path="url(#clip360)" d="M84.0938 494.904 L88.978 494.904 L88.978 500.783 L84.0938 500.783 L84.0938 494.904 Z" fill="#000000" fill-rule="evenodd" fill-opacity="1" /><path clip-path="url(#clip360)" d="M97.9826 466.223 L120.205 466.223 L120.205 468.214 L107.658 500.783 L102.774 500.783 L114.58 470.159 L97.9826 470.159 L97.9826 466.223 Z" fill="#000000" fill-rule="evenodd" fill-opacity="1" /><path clip-path="url(#clip360)" d="M129.371 466.223 L147.728 466.223 L147.728 470.159 L133.654 470.159 L133.654 478.631 Q134.672 478.284 135.691 478.122 Q136.709 477.936 137.728 477.936 Q143.515 477.936 146.894 481.108 Q150.274 484.279 150.274 489.696 Q150.274 495.274 146.802 498.376 Q143.33 501.455 137.01 501.455 Q134.834 501.455 132.566 501.084 Q130.32 500.714 127.913 499.973 L127.913 495.274 Q129.996 496.408 132.219 496.964 Q134.441 497.52 136.918 497.52 Q140.922 497.52 143.26 495.413 Q145.598 493.307 145.598 489.696 Q145.598 486.084 143.26 483.978 Q140.922 481.872 136.918 481.872 Q135.043 481.872 133.168 482.288 Q131.316 482.705 129.371 483.584 L129.371 466.223 Z" fill="#000000" fill-rule="evenodd" fill-opacity="1" /><path clip-path="url(#clip360)" d="M53.7467 175.392 L61.3856 175.392 L61.3856 149.026 L53.0754 150.693 L53.0754 146.434 L61.3393 144.767 L66.0152 144.767 L66.0152 175.392 L73.654 175.392 L73.654 179.327 L53.7467 179.327 L53.7467 175.392 Z" fill="#000000" fill-rule="evenodd" fill-opacity="1" /><path clip-path="url(#clip360)" d="M83.0984 173.447 L87.9827 173.447 L87.9827 179.327 L83.0984 179.327 L83.0984 173.447 Z" fill="#000000" fill-rule="evenodd" fill-opacity="1" /><path clip-path="url(#clip360)" d="M108.168 147.846 Q104.557 147.846 102.728 151.41 Q100.922 154.952 100.922 162.082 Q100.922 169.188 102.728 172.753 Q104.557 176.295 108.168 176.295 Q111.802 176.295 113.608 172.753 Q115.436 169.188 115.436 162.082 Q115.436 154.952 113.608 151.41 Q111.802 147.846 108.168 147.846 M108.168 144.142 Q113.978 144.142 117.033 148.748 Q120.112 153.332 120.112 162.082 Q120.112 170.808 117.033 175.415 Q113.978 179.998 108.168 179.998 Q102.358 179.998 99.2789 175.415 Q96.2234 170.808 96.2234 162.082 Q96.2234 153.332 99.2789 148.748 Q102.358 144.142 108.168 144.142 Z" fill="#000000" fill-rule="evenodd" fill-opacity="1" /><path clip-path="url(#clip360)" d="M138.33 147.846 Q134.719 147.846 132.89 151.41 Q131.084 154.952 131.084 162.082 Q131.084 169.188 132.89 172.753 Q134.719 176.295 138.33 176.295 Q141.964 176.295 143.769 172.753 Q145.598 169.188 145.598 162.082 Q145.598 154.952 143.769 151.41 Q141.964 147.846 138.33 147.846 M138.33 144.142 Q144.14 144.142 147.195 148.748 Q150.274 153.332 150.274 162.082 Q150.274 170.808 147.195 175.415 Q144.14 179.998 138.33 179.998 Q132.519 179.998 129.441 175.415 Q126.385 170.808 126.385 162.082 Q126.385 153.332 129.441 148.748 Q132.519 144.142 138.33 144.142 Z" fill="#000000" fill-rule="evenodd" fill-opacity="1" /><path clip-path="url(#clip360)" d="M1084.63 44.2197 Q1087.26 45.1109 1089.74 48.0275 Q1092.25 50.9442 1094.76 56.0483 L1103.06 72.576 L1094.27 72.576 L1086.54 57.061 Q1083.54 50.9847 1080.7 48.9997 Q1077.91 47.0148 1073.05 47.0148 L1064.13 47.0148 L1064.13 72.576 L1055.95 72.576 L1055.95 12.096 L1074.42 12.096 Q1084.79 12.096 1089.9 16.4305 Q1095 20.7649 1095 29.5149 Q1095 35.2267 1092.33 38.994 Q1089.7 42.7613 1084.63 44.2197 M1064.13 18.8205 L1064.13 40.2903 L1074.42 40.2903 Q1080.34 40.2903 1083.34 37.5762 Q1086.37 34.8216 1086.37 29.5149 Q1086.37 24.2082 1083.34 21.5346 Q1080.34 18.8205 1074.42 18.8205 L1064.13 18.8205 Z" fill="#000000" fill-rule="evenodd" fill-opacity="1" /><path clip-path="url(#clip360)" d="M1138.14 17.6457 Q1129.23 17.6457 1123.97 24.2892 Q1118.74 30.9327 1118.74 42.3968 Q1118.74 53.8203 1123.97 60.4638 Q1129.23 67.1073 1138.14 67.1073 Q1147.06 67.1073 1152.24 60.4638 Q1157.47 53.8203 1157.47 42.3968 Q1157.47 30.9327 1152.24 24.2892 Q1147.06 17.6457 1138.14 17.6457 M1138.14 11.0023 Q1150.86 11.0023 1158.48 19.5497 Q1166.1 28.0566 1166.1 42.3968 Q1166.1 56.6965 1158.48 65.2439 Q1150.86 73.7508 1138.14 73.7508 Q1125.38 73.7508 1117.73 65.2439 Q1110.11 56.737 1110.11 42.3968 Q1110.11 28.0566 1117.73 19.5497 Q1125.38 11.0023 1138.14 11.0023 Z" fill="#000000" fill-rule="evenodd" fill-opacity="1" /><path clip-path="url(#clip360)" d="M1224.19 16.7545 L1224.19 25.383 Q1220.05 21.5346 1215.35 19.6307 Q1210.7 17.7268 1205.43 17.7268 Q1195.06 17.7268 1189.55 24.0867 Q1184.04 30.4061 1184.04 42.3968 Q1184.04 54.3469 1189.55 60.7069 Q1195.06 67.0263 1205.43 67.0263 Q1210.7 67.0263 1215.35 65.1223 Q1220.05 63.2184 1224.19 59.3701 L1224.19 67.9175 Q1219.89 70.8341 1215.07 72.2924 Q1210.29 73.7508 1204.94 73.7508 Q1191.21 73.7508 1183.31 65.3654 Q1175.41 56.9395 1175.41 42.3968 Q1175.41 27.8135 1183.31 19.4281 Q1191.21 11.0023 1204.94 11.0023 Q1210.37 11.0023 1215.15 12.4606 Q1219.97 13.8784 1224.19 16.7545 Z" fill="#000000" fill-rule="evenodd" fill-opacity="1" /><path clip-path="url(#clip360)" d="M1295.52 28.9478 L1295.52 35.9153 Q1292.36 34.1734 1289.16 33.3227 Q1286 32.4315 1282.76 32.4315 Q1275.51 32.4315 1271.5 37.0496 Q1267.49 41.6271 1267.49 49.9314 Q1267.49 58.2358 1271.5 62.8538 Q1275.51 67.4314 1282.76 67.4314 Q1286 67.4314 1289.16 66.5807 Q1292.36 65.6895 1295.52 63.9476 L1295.52 70.8341 Q1292.4 72.2924 1289.04 73.0216 Q1285.72 73.7508 1281.95 73.7508 Q1271.7 73.7508 1265.67 67.3098 Q1259.63 60.8689 1259.63 49.9314 Q1259.63 38.832 1265.71 32.472 Q1271.82 26.1121 1282.44 26.1121 Q1285.88 26.1121 1289.16 26.8413 Q1292.44 27.5299 1295.52 28.9478 Z" fill="#000000" fill-rule="evenodd" fill-opacity="1" /><path clip-path="url(#clip360)" d="M1307.71 54.671 L1307.71 27.2059 L1315.17 27.2059 L1315.17 54.3874 Q1315.17 60.8284 1317.68 64.0691 Q1320.19 67.2693 1325.21 67.2693 Q1331.25 67.2693 1334.73 63.421 Q1338.26 59.5726 1338.26 52.9291 L1338.26 27.2059 L1345.71 27.2059 L1345.71 72.576 L1338.26 72.576 L1338.26 65.6084 Q1335.54 69.7404 1331.94 71.7658 Q1328.37 73.7508 1323.64 73.7508 Q1315.82 73.7508 1311.77 68.8897 Q1307.71 64.0286 1307.71 54.671 M1326.47 26.1121 L1326.47 26.1121 Z" fill="#000000" fill-rule="evenodd" fill-opacity="1" /><path clip-path="url(#clip360)" d="M1387.36 34.1734 Q1386.1 33.4443 1384.6 33.1202 Q1383.14 32.7556 1381.36 32.7556 Q1375.04 32.7556 1371.64 36.8875 Q1368.28 40.9789 1368.28 48.6757 L1368.28 72.576 L1360.78 72.576 L1360.78 27.2059 L1368.28 27.2059 L1368.28 34.2544 Q1370.63 30.1225 1374.39 28.1376 Q1378.16 26.1121 1383.55 26.1121 Q1384.32 26.1121 1385.25 26.2337 Q1386.18 26.3147 1387.32 26.5172 L1387.36 34.1734 Z" fill="#000000" fill-rule="evenodd" fill-opacity="1" /><path clip-path="url(#clip360)" d="M1389.83 27.2059 L1397.73 27.2059 L1411.9 65.2844 L1426.08 27.2059 L1433.98 27.2059 L1416.97 72.576 L1406.84 72.576 L1389.83 27.2059 Z" fill="#000000" fill-rule="evenodd" fill-opacity="1" /><path clip-path="url(#clip360)" d="M1483.08 48.0275 L1483.08 51.6733 L1448.81 51.6733 Q1449.29 59.3701 1453.43 63.421 Q1457.6 67.4314 1465.01 67.4314 Q1469.31 67.4314 1473.32 66.3781 Q1477.37 65.3249 1481.34 63.2184 L1481.34 70.267 Q1477.33 71.9684 1473.11 72.8596 Q1468.9 73.7508 1464.57 73.7508 Q1453.71 73.7508 1447.35 67.4314 Q1441.03 61.1119 1441.03 50.3365 Q1441.03 39.1965 1447.03 32.6746 Q1453.06 26.1121 1463.27 26.1121 Q1472.42 26.1121 1477.73 32.0264 Q1483.08 37.9003 1483.08 48.0275 M1475.62 45.84 Q1475.54 39.7232 1472.18 36.0774 Q1468.86 32.4315 1463.35 32.4315 Q1457.11 32.4315 1453.34 35.9558 Q1449.62 39.4801 1449.05 45.8805 L1475.62 45.84 Z" fill="#000000" fill-rule="evenodd" fill-opacity="1" /><polyline clip-path="url(#clip362)" style="stroke:#009af9; stroke-linecap:butt; stroke-linejoin:round; stroke-width:4; stroke-opacity:1; fill:none" points="
  247.59,1447.87 247.59,1445.35 247.59,1442.83 248.668,1442.83 248.668,1437.79 249.745,1437.79 249.745,1427.7 250.823,1427.7 250.823,1407.53 252.979,1407.53 
  252.979,1392.41 254.057,1392.41 254.057,1387.36 256.213,1387.36 256.213,1377.28 258.369,1377.28 258.369,1374.76 260.525,1374.76 260.525,1341.98 261.603,1341.98 
  261.603,1339.46 262.681,1339.46 262.681,1321.81 264.837,1321.81 264.837,1316.77 265.915,1316.77 265.915,1314.25 266.993,1314.25 266.993,1306.68 268.071,1306.68 
  268.071,1301.64 269.149,1301.64 269.149,1299.12 270.227,1299.12 270.227,1296.6 271.305,1296.6 271.305,1294.08 273.461,1294.08 273.461,1291.56 275.617,1291.56 
  275.617,1289.04 278.851,1289.04 278.851,1271.39 282.085,1271.39 282.085,1266.34 283.163,1266.34 283.163,1233.57 284.241,1233.57 284.241,1228.53 285.319,1228.53 
  285.319,1226.01 291.787,1226.01 291.787,1210.88 293.943,1210.88 293.943,1205.84 295.021,1205.84 295.021,1203.31 296.099,1203.31 296.099,1200.79 297.177,1200.79 
  297.177,1198.27 298.255,1198.27 298.255,1193.23 301.489,1193.23 301.489,1183.14 305.8,1183.14 305.8,1178.1 307.956,1178.1 307.956,1175.58 310.112,1175.58 
  310.112,1173.06 311.19,1173.06 311.19,1170.54 316.58,1170.54 316.58,1168.02 317.658,1168.02 317.658,1162.97 319.814,1162.97 319.814,1152.89 321.97,1152.89 
  321.97,1147.85 323.048,1147.85 323.048,1145.33 324.126,1145.33 324.126,1142.8 325.204,1142.8 325.204,1140.28 328.438,1140.28 328.438,1137.76 332.75,1137.76 
  332.75,1132.72 335.984,1132.72 335.984,1130.2 337.062,1130.2 337.062,1127.68 338.14,1127.68 338.14,1125.16 339.218,1125.16 339.218,1122.63 340.296,1122.63 
  340.296,1115.07 341.374,1115.07 341.374,1107.51 344.608,1107.51 344.608,1104.99 345.686,1104.99 345.686,1099.94 346.764,1099.94 346.764,1097.42 347.842,1097.42 
  347.842,1094.9 353.232,1094.9 353.232,1092.38 357.544,1092.38 357.544,1089.86 360.777,1089.86 360.777,1077.25 365.089,1077.25 365.089,1069.69 367.245,1069.69 
  367.245,1064.65 369.401,1064.65 369.401,1054.56 373.713,1054.56 373.713,1052.04 375.869,1052.04 375.869,1047 378.025,1047 378.025,1044.48 379.103,1044.48 
  379.103,1041.96 380.181,1041.96 380.181,1039.43 385.571,1039.43 385.571,1036.91 386.649,1036.91 386.649,1034.39 388.805,1034.39 388.805,1031.87 395.273,1031.87 
  395.273,1029.35 397.429,1029.35 397.429,1026.83 398.507,1026.83 398.507,1019.26 399.585,1019.26 399.585,1016.74 401.741,1016.74 401.741,1009.18 403.897,1009.18 
  403.897,1006.66 404.975,1006.66 404.975,999.095 410.365,999.095 410.365,989.01 414.676,989.01 414.676,983.967 415.754,983.967 415.754,981.446 421.144,981.446 
  421.144,973.882 422.222,973.882 422.222,971.361 423.3,971.361 423.3,968.84 424.378,968.84 424.378,963.797 425.456,963.797 425.456,961.276 428.69,961.276 
  428.69,951.191 429.768,951.191 429.768,946.149 430.846,946.149 430.846,943.628 433.002,943.628 433.002,941.106 438.392,941.106 438.392,936.064 439.47,936.064 
  439.47,928.5 442.704,928.5 442.704,920.936 443.782,920.936 443.782,918.415 445.938,918.415 445.938,913.373 450.25,913.373 450.25,898.245 457.796,898.245 
  457.796,895.724 458.874,895.724 458.874,883.118 470.731,883.118 470.731,878.076 473.965,878.076 473.965,875.554 476.121,875.554 476.121,870.512 478.277,870.512 
  478.277,867.991 480.433,867.991 480.433,862.948 487.979,862.948 487.979,860.427 509.539,860.427 509.539,857.906 511.695,857.906 511.695,855.385 513.851,855.385 
  513.851,850.342 518.163,850.342 518.163,847.821 520.319,847.821 520.319,845.3 525.708,845.3 525.708,835.215 530.02,835.215 530.02,832.694 533.254,832.694 
  533.254,827.651 539.722,827.651 539.722,825.13 542.956,825.13 542.956,822.609 547.268,822.609 547.268,817.566 551.58,817.566 551.58,815.045 553.736,815.045 
  553.736,812.524 558.048,812.524 558.048,810.002 560.204,810.002 560.204,807.481 561.282,807.481 561.282,804.96 577.452,804.96 577.452,802.439 580.685,802.439 
  580.685,799.918 587.153,799.918 587.153,797.396 590.387,797.396 590.387,787.311 593.621,787.311 593.621,777.226 595.777,777.226 595.777,772.184 596.855,772.184 
  596.855,769.663 600.089,769.663 600.089,767.142 605.479,767.142 605.479,764.62 608.713,764.62 608.713,762.099 613.025,762.099 613.025,759.578 614.103,759.578 
  614.103,757.057 618.415,757.057 618.415,752.014 621.649,752.014 621.649,746.972 623.805,746.972 623.805,744.451 628.117,744.451 628.117,741.929 634.584,741.929 
  634.584,736.887 638.896,736.887 638.896,734.366 639.974,734.366 639.974,731.844 643.208,731.844 643.208,729.323 647.52,729.323 647.52,726.802 648.598,726.802 
  648.598,724.281 651.832,724.281 651.832,721.759 662.612,721.759 662.612,719.238 668.002,719.238 668.002,716.717 671.236,716.717 671.236,714.196 673.392,714.196 
  673.392,711.675 674.47,711.675 674.47,709.153 677.704,709.153 677.704,706.632 679.86,706.632 679.86,704.111 684.172,704.111 684.172,701.59 689.561,701.59 
  689.561,696.547 700.341,696.547 700.341,694.026 704.653,694.026 704.653,688.984 705.731,688.984 705.731,683.941 707.887,683.941 707.887,681.42 710.043,681.42 
  710.043,678.899 730.525,678.899 730.525,673.856 732.681,673.856 732.681,671.335 734.837,671.335 734.837,668.814 736.993,668.814 736.993,666.292 745.616,666.292 
  745.616,663.771 748.85,663.771 748.85,661.25 749.928,661.25 749.928,656.208 760.708,656.208 760.708,653.686 763.942,653.686 763.942,648.644 767.176,648.644 
  767.176,646.123 779.034,646.123 779.034,643.601 780.112,643.601 780.112,641.08 782.268,641.08 782.268,638.559 785.502,638.559 785.502,636.038 790.892,636.038 
  790.892,633.517 793.048,633.517 793.048,630.995 799.515,630.995 799.515,625.953 802.749,625.953 802.749,623.432 803.827,623.432 803.827,620.91 805.983,620.91 
  805.983,618.389 808.139,618.389 808.139,615.868 811.373,615.868 811.373,613.347 816.763,613.347 816.763,610.825 818.919,610.825 818.919,608.304 821.075,608.304 
  821.075,605.783 825.387,605.783 825.387,603.262 829.699,603.262 829.699,598.219 838.323,598.219 838.323,595.698 839.401,595.698 839.401,593.177 843.713,593.177 
  843.713,590.656 852.337,590.656 852.337,580.571 864.194,580.571 864.194,578.049 866.35,578.049 866.35,573.007 878.208,573.007 878.208,570.486 882.52,570.486 
  882.52,567.965 897.612,567.965 897.612,562.922 900.846,562.922 900.846,560.401 904.08,560.401 904.08,557.88 909.469,557.88 909.469,555.358 911.625,555.358 
  911.625,552.837 914.859,552.837 914.859,550.316 922.405,550.316 922.405,547.795 923.483,547.795 923.483,542.752 924.561,542.752 924.561,540.231 928.873,540.231 
  928.873,537.71 929.951,537.71 929.951,535.189 940.731,535.189 940.731,532.667 943.965,532.667 943.965,530.146 948.277,530.146 948.277,522.582 954.745,522.582 
  954.745,520.061 963.369,520.061 963.369,517.54 965.524,517.54 965.524,515.019 967.68,515.019 967.68,512.498 974.148,512.498 974.148,507.455 975.226,507.455 
  975.226,504.934 978.46,504.934 978.46,499.891 1003.25,499.891 1003.25,497.37 1005.41,497.37 1005.41,494.849 1009.72,494.849 1009.72,492.328 1010.8,492.328 
  1010.8,489.807 1011.88,489.807 1011.88,484.764 1015.11,484.764 1015.11,477.2 1016.19,477.2 1016.19,474.679 1018.35,474.679 1018.35,472.158 1021.58,472.158 
  1021.58,469.637 1036.67,469.637 1036.67,467.115 1042.06,467.115 1042.06,462.073 1046.37,462.073 1046.37,459.552 1052.84,459.552 1052.84,457.031 1063.62,457.031 
  1063.62,454.509 1064.7,454.509 1064.7,451.988 1088.41,451.988 1088.41,449.467 1098.12,449.467 1098.12,446.946 1102.43,446.946 1102.43,444.424 1121.83,444.424 
  1121.83,441.903 1122.91,441.903 1122.91,439.382 1125.07,439.382 1125.07,434.34 1140.16,434.34 1140.16,429.297 1159.56,429.297 1159.56,426.776 1161.72,426.776 
  1161.72,424.255 1173.57,424.255 1173.57,421.733 1177.89,421.733 1177.89,419.212 1184.35,419.212 1184.35,416.691 1185.43,416.691 1185.43,414.17 1186.51,414.17 
  1186.51,411.648 1189.74,411.648 1189.74,409.127 1190.82,409.127 1190.82,406.606 1192.98,406.606 1192.98,404.085 1196.21,404.085 1196.21,401.564 1203.76,401.564 
  1203.76,399.042 1221.01,399.042 1221.01,396.521 1230.71,396.521 1230.71,394 1239.33,394 1239.33,391.479 1241.49,391.479 1241.49,388.957 1245.8,388.957 
  1245.8,383.915 1251.19,383.915 1251.19,378.873 1253.35,378.873 1253.35,376.351 1256.58,376.351 1256.58,373.83 1275.98,373.83 1275.98,371.309 1281.37,371.309 
  1281.37,368.788 1301.85,368.788 1301.85,366.266 1304.01,366.266 1304.01,363.745 1309.4,363.745 1309.4,361.224 1311.56,361.224 1311.56,356.181 1312.63,356.181 
  1312.63,353.66 1324.49,353.66 1324.49,351.139 1328.8,351.139 1328.8,348.618 1339.58,348.618 1339.58,346.097 1354.68,346.097 1354.68,343.575 1358.99,343.575 
  1358.99,341.054 1362.22,341.054 1362.22,338.533 1373,338.533 1373,336.012 1385.94,336.012 1385.94,333.49 1388.09,333.49 1388.09,330.969 1392.4,330.969 
  1392.4,328.448 1398.87,328.448 1398.87,325.927 1401.03,325.927 1401.03,323.405 1409.65,323.405 1409.65,320.884 1413.96,320.884 1413.96,318.363 1415.04,318.363 
  1415.04,313.321 1417.2,313.321 1417.2,310.799 1419.35,310.799 1419.35,308.278 1420.43,308.278 1420.43,305.757 1430.13,305.757 1430.13,303.236 1434.45,303.236 
  1434.45,300.714 1436.6,300.714 1436.6,298.193 1443.07,298.193 1443.07,295.672 1447.38,295.672 1447.38,293.151 1449.54,293.151 1449.54,290.63 1456.01,290.63 
  1456.01,288.108 1463.55,288.108 1463.55,285.587 1471.1,285.587 1471.1,283.066 1480.8,283.066 1480.8,280.545 1485.11,280.545 1485.11,278.023 1487.27,278.023 
  1487.27,275.502 1510.98,275.502 1510.98,272.981 1514.22,272.981 1514.22,270.46 1525,270.46 1525,267.938 1531.46,267.938 1531.46,265.417 1540.09,265.417 
  1540.09,262.896 1563.8,262.896 1563.8,260.375 1568.12,260.375 1568.12,257.854 1571.35,257.854 1571.35,255.332 1575.66,255.332 1575.66,252.811 1595.07,252.811 
  1595.07,247.769 1604.77,247.769 1604.77,245.247 1605.84,245.247 1605.84,242.726 1634.95,242.726 1634.95,240.205 1656.51,240.205 1656.51,237.684 1660.82,237.684 
  1660.82,235.163 1664.06,235.163 1664.06,232.641 1671.6,232.641 1671.6,230.12 1675.91,230.12 1675.91,227.599 1681.3,227.599 1681.3,225.078 1713.64,225.078 
  1713.64,222.556 1737.36,222.556 1737.36,220.035 1770.78,220.035 1770.78,217.514 1791.26,217.514 1791.26,214.993 1816.05,214.993 1816.05,212.471 1830.06,212.471 
  1830.06,209.95 1855.94,209.95 1855.94,207.429 1871.03,207.429 1871.03,204.908 1899.06,204.908 1899.06,202.387 1901.21,202.387 1901.21,199.865 1905.52,199.865 
  1905.52,197.344 1920.62,197.344 1920.62,194.823 1934.63,194.823 1934.63,192.302 1952.95,192.302 1952.95,189.78 1958.34,189.78 1958.34,187.259 1974.51,187.259 
  1974.51,184.738 1995,184.738 1995,182.217 2014.4,182.217 2014.4,179.696 2030.57,179.696 2030.57,177.174 2033.8,177.174 2033.8,174.653 2052.13,174.653 
  2052.13,172.132 2100.64,172.132 2100.64,169.611 2126.51,169.611 2126.51,167.089 2137.29,167.089 2137.29,164.568 2235.39,164.568 2235.39,162.047 2291.44,162.047 
  
  "/>
<path clip-path="url(#clip360)" d="
M1987.39 272.585 L2280.54 272.585 L2280.54 168.905 L1987.39 168.905  Z
  " fill="#ffffff" fill-rule="evenodd" fill-opacity="1"/>
<polyline clip-path="url(#clip360)" style="stroke:#000000; stroke-linecap:butt; stroke-linejoin:round; stroke-width:4; stroke-opacity:1; fill:none" points="
  1987.39,272.585 2280.54,272.585 2280.54,168.905 1987.39,168.905 1987.39,272.585 
  "/>
<polyline clip-path="url(#clip360)" style="stroke:#009af9; stroke-linecap:butt; stroke-linejoin:round; stroke-width:4; stroke-opacity:1; fill:none" points="
  2011.46,220.745 2155.89,220.745 
  "/>
<path clip-path="url(#clip360)" d="M2193.81 240.432 Q2192 245.062 2190.29 246.474 Q2188.58 247.886 2185.71 247.886 L2182.3 247.886 L2182.3 244.321 L2184.8 244.321 Q2186.56 244.321 2187.53 243.488 Q2188.51 242.654 2189.69 239.552 L2190.45 237.608 L2179.97 212.099 L2184.48 212.099 L2192.58 232.377 L2200.68 212.099 L2205.2 212.099 L2193.81 240.432 Z" fill="#000000" fill-rule="evenodd" fill-opacity="1" /><path clip-path="url(#clip360)" d="M2212.49 234.089 L2220.13 234.089 L2220.13 207.724 L2211.82 209.391 L2211.82 205.131 L2220.08 203.465 L2224.76 203.465 L2224.76 234.089 L2232.4 234.089 L2232.4 238.025 L2212.49 238.025 L2212.49 234.089 Z" fill="#000000" fill-rule="evenodd" fill-opacity="1" /></svg>
